<?xml version="1.0" standalone="no"?>
<!DOCTYPE svg PUBLIC "-//W3C//DTD SVG 20010904//EN"
 "http://www.w3.org/TR/2001/REC-SVG-20010904/DTD/svg10.dtd">
<svg version="1.0" xmlns="http://www.w3.org/2000/svg"
 width="512.000000pt" height="512.000000pt" viewBox="0 0 512.000000 512.000000"
 preserveAspectRatio="xMidYMid meet">
<metadata>
Created by potrace 1.14, written by Peter Selinger 2001-2017
</metadata>
<g transform="translate(0.000000,512.000000) scale(0.100000,-0.100000)"
fill="#000000" stroke="none">
<path d="M2336 4544 c4 -49 -10 -32 -15 19 -1 4 -202 6 -448 5 l-447 -3 -17
-100 c-9 -55 -19 -118 -23 -140 -3 -22 -8 -51 -10 -65 -4 -20 -46 -274 -61
-370 -2 -14 -11 -65 -19 -115 -8 -49 -18 -108 -21 -130 -3 -23 -8 -52 -10 -65
-3 -14 -8 -45 -11 -70 -3 -25 -7 -52 -9 -60 -2 -8 -6 -28 -9 -45 -3 -16 -16
-100 -30 -185 -14 -85 -37 -225 -50 -310 -14 -85 -27 -164 -30 -175 -2 -11 -6
-41 -10 -66 -4 -25 -9 -57 -11 -70 -2 -13 -18 -109 -35 -214 -17 -104 -33
-203 -36 -220 -2 -16 -9 -55 -14 -85 -5 -30 -11 -71 -14 -90 -3 -19 -7 -44
-10 -55 -2 -11 -6 -41 -10 -66 -4 -25 -9 -57 -11 -70 -2 -13 -16 -96 -30 -184
-14 -88 -28 -171 -30 -185 -2 -14 -7 -42 -10 -64 -4 -21 -9 -48 -11 -60 -3
-11 -7 -39 -10 -61 -3 -22 -9 -62 -14 -90 -6 -27 -12 -66 -14 -85 -3 -19 -19
-120 -36 -225 -17 -104 -33 -203 -36 -220 -2 -16 -6 -41 -9 -55 -3 -14 -7 -41
-10 -60 -14 -88 -17 -106 -22 -123 -4 -16 13 -17 304 -15 l308 3 22 150 c12
83 24 166 27 186 2 20 7 51 10 70 3 19 8 50 10 69 5 36 25 169 31 206 2 12 6
47 10 78 6 42 11 56 24 56 17 1 722 1 732 0 4 0 10 -25 14 -56 4 -31 8 -66 10
-78 2 -11 6 -42 9 -67 4 -25 9 -57 11 -70 2 -13 9 -60 15 -104 6 -44 15 -107
20 -140 5 -33 12 -79 15 -102 3 -24 8 -62 11 -85 4 -24 8 -56 9 -73 2 -16 3
-33 4 -37 0 -5 149 -8 329 -8 l328 0 0 854 c0 470 2 857 4 859 3 3 113 7 245
10 132 3 254 8 270 11 17 3 46 9 65 12 155 25 337 113 440 213 107 104 205
288 235 441 33 169 34 183 34 560 0 323 0 345 -14 450 -42 340 -210 589 -479
710 -56 26 -198 66 -270 77 -17 3 -292 7 -612 10 l-580 4 2 -37z m1094 -582
c99 -33 151 -91 181 -200 17 -61 19 -101 16 -447 -2 -209 -6 -390 -9 -402 -26
-89 -73 -150 -142 -185 -59 -30 -84 -33 -291 -33 l-189 0 -1 643 0 643 195 -2
c143 -1 207 -6 240 -17z m-1573 -150 c1 -9 5 -42 9 -72 3 -30 8 -64 10 -75 3
-17 32 -220 50 -350 5 -38 20 -139 29 -195 3 -22 15 -107 31 -230 2 -19 7 -50
10 -68 3 -17 7 -47 9 -66 3 -18 18 -127 35 -242 16 -115 31 -225 34 -244 2
-19 7 -51 10 -70 7 -42 11 -71 36 -259 11 -79 20 -151 20 -161 0 -16 -22 -17
-292 -16 l-293 1 2 25 c1 14 12 93 23 175 12 83 23 165 26 183 2 17 6 47 8 65
3 17 8 55 11 82 4 28 13 91 20 140 8 50 17 113 20 140 3 28 10 77 15 110 5 33
13 94 19 135 6 41 12 91 15 110 3 19 8 58 11 85 3 28 8 61 10 75 8 42 13 81
30 205 9 66 18 131 20 145 5 33 23 164 30 220 18 134 27 182 33 175 3 -3 7
-13 9 -23z"/>
</g>
</svg>
